<svg xmlns:xlink="http://www.w3.org/1999/xlink" role="none" aria-hidden="true" xmlns="http://www.w3.org/2000/svg" width="24" height="24" viewBox="0 0 24 24" data-supported-dps="24x24" data-test-icon="popular-content-small" type="popular-content-small"><defs><svg xmlns="http://www.w3.org/2000/svg" viewBox="0 0 16 16" id="popular-content-small" aria-hidden="true" role="none" data-supported-dps="16x16" fill="#000000" fill-opacity="0.9">
  <path d="M12.9 9.33s.06-.04.1-.06V12c0 1.65-1.35 3-3 3H4c-1.65 0-3-1.35-3-3V6c0-1.3.84-2.4 2-2.82v8.81c0 .55.45 1 1 1h6c.55 0 1-.45 1-1v-1.45l.38-.24 1.12-.72c.13-.09.27-.17.4-.25zM15 4.49c0 .93-.32 1.86-.89 2.6-.31.41-.7.71-1.11.99-.34.23-.69.44-1.04.66-.32.21-.64.41-.96.62L10 10V8H7.44c-1.6 0-3.13-1.24-3.38-3-.02-.17-.05-.33-.05-.51 0-.53.14-1.03.36-1.49.57-1.16 1.77-2 3.22-2h3.98c1.9 0 3.44 1.59 3.44 3.49zM12 5H6v1h6V5zm1-2H6v1h7V3z" fill-opacity="0.9"></path>
</svg></defs>
<!---->    
    <use href="#popular-content-small" width="24" height="24" stroke-opacity="0" stroke="#000000" fill-opacity="0" fill="#000000"></use>
</svg>