<svg xmlns:xlink="http://www.w3.org/1999/xlink" role="none" aria-hidden="true" class="community-panel-interest-package__entity-icon" xmlns="http://www.w3.org/2000/svg" width="16" height="16" viewBox="0 0 16 16" data-supported-dps="16x16" data-test-icon="group-small"><defs><svg xmlns="http://www.w3.org/2000/svg" viewBox="0 0 16 16" id="group-small" aria-hidden="true" role="none" data-supported-dps="16x16" fill="#000000" fill-opacity="0.9">
  <path d="M8.5 7h-1A1.5 1.5 0 006 8.5V14h4V8.5A1.5 1.5 0 008.5 7zM12.75 8h-.5A1.25 1.25 0 0011 9.25V14h3V9.25A1.25 1.25 0 0012.75 8z" fill-opacity="0.9"></path>
  <circle cx="8" cy="4" r="2" fill-opacity="0.9"></circle>
  <circle cx="12.5" cy="5.5" r="1.5" fill-opacity="0.9"></circle>
  <path d="M3.75 8h-.5A1.25 1.25 0 002 9.25V14h3V9.25A1.25 1.25 0 003.75 8z" fill-opacity="0.9"></path>
  <circle cx="3.5" cy="5.5" r="1.5" fill-opacity="0.9"></circle>
</svg></defs>
<!---->    
    <use href="#group-small" width="16" height="16" stroke-opacity="0" stroke="#000000" fill-opacity="0" fill="#000000"></use>
</svg>