<svg xmlns:xlink="http://www.w3.org/1999/xlink" role="img" aria-hidden="false" aria-label="Filter messages by" xmlns="http://www.w3.org/2000/svg" width="16" height="16" viewBox="0 0 16 16" data-supported-dps="16x16" data-test-icon="filter-small"><defs><svg xmlns="http://www.w3.org/2000/svg" viewBox="0 0 16 16" id="filter-small" aria-hidden="true" role="none" data-supported-dps="16x16" fill="#000000" fill-opacity="0.9">
  <path d="M15 4H6.72a1.98 1.98 0 01-3.44 0H1V2h2.28a1.98 1.98 0 013.44 0H15v2zm0 8H6.72a1.98 1.98 0 00-3.44 0H1v2h2.28a1.98 1.98 0 003.44 0H15v-2zm0-5h-2.28a1.98 1.98 0 00-3.44 0H1v2h8.28a1.98 1.98 0 003.44 0H15V7z" fill-opacity="0.9"></path>
</svg></defs>
<!---->    
    <use href="#filter-small" width="16" height="16" stroke-opacity="0" stroke="#000000" fill-opacity="0" fill="#000000"></use>
</svg>