<svg xmlns:xlink="http://www.w3.org/1999/xlink" role="none" aria-hidden="true" class="artdeco-button__icon " xmlns="http://www.w3.org/2000/svg" width="16" height="16" viewBox="0 0 16 16" data-supported-dps="16x16" data-test-icon="compose-small"><defs><svg xmlns="http://www.w3.org/2000/svg" viewBox="0 0 16 16" id="compose-small" aria-hidden="true" role="none" data-supported-dps="16x16" fill="#000000" fill-opacity="0.9">
  <path d="M15 2.53a1.51 1.51 0 01-.44 1L9.15 9 6 10l1-3.12 5.44-5.44A1.5 1.5 0 0115 2.53zM12 11a1 1 0 01-1 1H5a1 1 0 01-1-1V5a1 1 0 011-1h3V2H5a3 3 0 00-3 3v6a3 3 0 003 3h6a3 3 0 003-3V8h-2z" fill-opacity="0.9"></path>
</svg></defs>
<!---->    
    <use href="#compose-small" width="16" height="16" stroke-opacity="0" stroke="#000000" fill-opacity="0" fill="#000000"></use>
</svg>